<?xml version="1.0" encoding="utf-8"?>
<!-- Generator: Adobe Illustrator 17.1.0, SVG Export Plug-In . SVG Version: 6.00 Build 0)  -->
<!DOCTYPE svg PUBLIC "-//W3C//DTD SVG 1.1//EN" "http://www.w3.org/Graphics/SVG/1.1/DTD/svg11.dtd">
<svg version="1.1" id="Calque_1" xmlns="http://www.w3.org/2000/svg" xmlns:xlink="http://www.w3.org/1999/xlink" x="0px" y="0px"
	 viewBox="0 0 1000 1000" enable-background="new 0 0 1000 1000" xml:space="preserve">
<g>
	<g>
		<defs>
			<rect id="SVGID_1_" x="107.2" y="32.6" width="773.8" height="851.2"/>
		</defs>
		<defs>
			<path id="SVGID_2_" d="M676.1,625.8h-364c-113,0-204.9-92.6-204.9-206.4c0-54.3,20.7-105.6,58.4-144.4
				c33-34,75.8-55.1,122.1-60.6c5.5-46.6,26.4-89.7,60.2-123c38.5-38,89.4-58.9,143.3-58.9c53.9,0,104.8,20.9,143.3,58.8
				c33.6,33.1,54.5,76,60.1,122.4c104.4,9.4,186.5,98,186.5,205.6C881,533.2,789,625.8,676.1,625.8L676.1,625.8L676.1,625.8z
				 M676.8,587.1h1.6c90.4,0,163.9-74.5,163.9-166.1c0-91.6-73.5-166.1-163.9-166.1h-1.6c-11.8,0-21.5-9.5-21.7-21.5
				c-2-89.4-75.5-162.2-163.9-162.2c-88.3,0-161.9,72.8-163.9,162.2c-0.3,11.8-9.6,21.3-21.3,21.5c-88.3,2.1-160.1,76.5-160.1,166
				c0,91.6,73.5,166.1,163.9,166.1h1.3l0.5,0c0.5,0,0.9,0,1.4,0L676.8,587.1L676.8,587.1L676.8,587.1z M596.2,407
				c-12.9-8.5-13.6-24.1-13.6-24.8c-0.1-4.2-3.5-7.6-7.7-7.5c-4.2,0.1-7.6,3.6-7.5,7.8c0,0.6,0.2,7.9,3.7,16.5
				c-46,43.9-118.3,43.9-164.4,0.3c3.6-8.8,3.8-16.2,3.8-16.8c0.1-4.2-3.3-7.7-7.4-7.8c-4.1-0.1-7.6,3.3-7.8,7.5
				c0,0.6-0.6,16.3-13.6,24.8c-3.5,2.3-4.5,7.1-2.2,10.6c1.5,2.2,3.9,3.5,6.4,3.5c1.4,0,2.9-0.4,4.1-1.2c3.3-2.2,6.1-4.7,8.5-7.3
				c25.6,23.2,58,34.8,90.3,34.8c32.4,0,64.9-11.7,90.5-35c2.4,2.7,5.2,5.2,8.6,7.5c1.3,0.8,2.7,1.2,4.1,1.2c2.5,0,4.9-1.2,6.4-3.5
				C600.7,414,599.7,409.3,596.2,407L596.2,407L596.2,407z M596.2,407"/>
		</defs>
		<clipPath id="SVGID_3_">
			<use xlink:href="#SVGID_1_"  overflow="visible"/>
		</clipPath>
		<clipPath id="SVGID_4_" clip-path="url(#SVGID_3_)">
			<use xlink:href="#SVGID_2_"  overflow="visible"/>
		</clipPath>
		<rect x="42.7" y="-31.9" clip-path="url(#SVGID_4_)" fill="#33A6FF" width="902.7" height="722.2"/>
	</g>
	<g>
		<defs>
			<rect id="SVGID_5_" x="107.2" y="28" width="773.8" height="950.4"/>
		</defs>
		<defs>
			<path id="SVGID_6_" d="M109,824.8c0-12.2,1.9-23,5.7-32.4c3.8-9.5,8.9-17.5,15.2-24.1c6.4-6.6,13.8-11.6,22.3-14.9
				c8.5-3.4,17.4-5.1,26.8-5.1c9.6,0,17.8,1.7,24.7,5.2c6.9,3.5,12.8,7.5,17.8,12.1l-12.3,15.8c-4.4-3.8-8.9-6.9-13.6-9.3
				c-4.7-2.4-9.9-3.6-15.7-3.6c-6.6,0-12.7,1.3-18.2,4c-5.6,2.7-10.4,6.5-14.3,11.5c-4,5-7.1,10.9-9.4,17.8
				c-2.3,6.9-3.4,14.5-3.4,22.9c0,8.4,1.1,15.9,3.3,22.7c2.2,6.8,5.2,12.6,9.1,17.5c3.9,4.9,8.6,8.7,14.2,11.4
				c5.6,2.7,11.7,4,18.2,4c7,0,13.3-1.4,19-4.3c5.7-2.9,10.7-6.3,15.1-10.3l11.1,16.1c-6.6,5.8-13.9,10.4-22,13.8
				s-16.5,5.1-25.3,5.1c-9.6,0-18.5-1.7-26.9-5.1c-8.4-3.4-15.6-8.3-21.7-14.8c-6.1-6.5-10.9-14.4-14.3-23.9
				C110.7,847.4,109,836.7,109,824.8L109,824.8L109,824.8z M229.7,824.8c0-12.2,1.8-23,5.5-32.4c3.7-9.5,8.6-17.5,14.8-24.1
				c6.2-6.6,13.3-11.6,21.4-14.9c8.1-3.4,16.6-5.1,25.6-5.1c9,0,17.5,1.7,25.6,5.1c8.1,3.4,15.2,8.4,21.4,14.9
				c6.2,6.6,11.1,14.6,14.8,24.1c3.7,9.5,5.5,20.3,5.5,32.4c0,12-1.8,22.7-5.5,32.1c-3.7,9.5-8.6,17.4-14.8,23.9
				c-6.2,6.5-13.3,11.4-21.4,14.8c-8.1,3.4-16.6,5.1-25.6,5.1c-9,0-17.5-1.7-25.6-5.1c-8.1-3.4-15.2-8.3-21.4-14.8
				c-6.2-6.5-11.1-14.4-14.8-23.9C231.5,847.4,229.7,836.7,229.7,824.8L229.7,824.8L229.7,824.8z M255.1,824.8c0,8.4,1,15.9,3,22.7
				c2,6.8,4.8,12.6,8.5,17.5c3.7,4.9,8.1,8.7,13.3,11.4c5.2,2.7,10.9,4,17,4s11.9-1.3,17-4c5.2-2.7,9.6-6.5,13.3-11.4
				c3.7-4.9,6.5-10.7,8.5-17.5c2-6.8,3-14.3,3-22.7c0-8.4-1-16-3-22.9c-2-6.9-4.8-12.8-8.5-17.8c-3.7-5-8.1-8.8-13.3-11.5
				c-5.2-2.7-10.9-4-17-4s-11.9,1.3-17,4c-5.2,2.7-9.6,6.5-13.3,11.5c-3.7,5-6.5,10.9-8.5,17.8C256.1,808.8,255.1,816.4,255.1,824.8
				L255.1,824.8L255.1,824.8z M376.1,884l76.5-112.1h-68.2v-20h99.2V765l-76.5,112.1h78.9v20h-110V884L376.1,884z M498,937.2
				c1.6,0.4,3.4,0.8,5.4,1.3c2,0.5,3.9,0.7,5.7,0.7c8.4,0,15.2-2.9,20.5-8.8c5.3-5.9,9.4-13.3,12.4-22.3l3.3-10.8l-58.3-145.6h25.4
				l29.6,80.4c2.2,6.4,4.5,13.1,7,20.2c2.5,7.1,4.8,14,7,20.8h1.2c2.2-6.6,4.3-13.5,6.3-20.6c2-7.2,4-14,6-20.3l26-80.4h23.9
				l-54.7,157.2c-2.6,7.2-5.5,13.9-8.7,20c-3.2,6.2-7,11.5-11.4,16c-4.4,4.5-9.4,8-14.9,10.6s-12.1,3.9-19.4,3.9
				c-3.4,0-6.5-0.2-9.3-0.7c-2.8-0.5-5.4-1.2-7.8-2.2L498,937.2L498,937.2z M622.6,882.2c0-5.8,1.7-10.4,5.2-13.9
				c3.5-3.5,7.7-5.2,12.7-5.2c4.8,0,8.9,1.7,12.4,5.2c3.5,3.5,5.2,8.1,5.2,13.9c0,5.4-1.7,9.8-5.2,13.3s-7.6,5.2-12.4,5.2
				c-5,0-9.2-1.7-12.7-5.2C624.3,892,622.6,887.5,622.6,882.2L622.6,882.2L622.6,882.2z M705.3,721.9c-4.8,0-8.8-1.5-12.1-4.5
				c-3.3-3-4.9-6.8-4.9-11.4c0-4.8,1.6-8.6,4.9-11.5c3.3-2.9,7.3-4.3,12.1-4.3c4.8,0,8.8,1.4,12.1,4.3c3.3,2.9,4.9,6.7,4.9,11.5
				c0,4.6-1.6,8.4-4.9,11.4C714.1,720.4,710.1,721.9,705.3,721.9L705.3,721.9L705.3,721.9z M692.8,751.8h24.5v145.3h-24.5V751.8
				L692.8,751.8z M746.2,824.8c0-12.2,1.8-23,5.5-32.4c3.7-9.5,8.6-17.5,14.8-24.1c6.2-6.6,13.3-11.6,21.4-14.9
				c8.1-3.4,16.6-5.1,25.6-5.1c9,0,17.5,1.7,25.6,5.1s15.2,8.4,21.4,14.9c6.2,6.6,11.1,14.6,14.8,24.1c3.7,9.5,5.5,20.3,5.5,32.4
				c0,12-1.8,22.7-5.5,32.1c-3.7,9.5-8.6,17.4-14.8,23.9c-6.2,6.5-13.3,11.4-21.4,14.8s-16.6,5.1-25.6,5.1c-9,0-17.5-1.7-25.6-5.1
				c-8.1-3.4-15.2-8.3-21.4-14.8c-6.2-6.5-11.1-14.4-14.8-23.9C748,847.4,746.2,836.7,746.2,824.8L746.2,824.8L746.2,824.8z
				 M771.6,824.8c0,8.4,1,15.9,3,22.7c2,6.8,4.8,12.6,8.5,17.5c3.7,4.9,8.1,8.7,13.3,11.4c5.2,2.7,10.9,4,17,4c6.2,0,11.9-1.3,17-4
				c5.2-2.7,9.6-6.5,13.3-11.4c3.7-4.9,6.5-10.7,8.5-17.5c2-6.8,3-14.3,3-22.7c0-8.4-1-16-3-22.9c-2-6.9-4.8-12.8-8.5-17.8
				c-3.7-5-8.1-8.8-13.3-11.5c-5.2-2.7-10.9-4-17-4c-6.2,0-11.9,1.3-17,4c-5.2,2.7-9.6,6.5-13.3,11.5c-3.7,5-6.5,10.9-8.5,17.8
				C772.6,808.8,771.6,816.4,771.6,824.8L771.6,824.8L771.6,824.8z M771.6,824.8"/>
		</defs>
		<clipPath id="SVGID_7_">
			<use xlink:href="#SVGID_5_"  overflow="visible"/>
		</clipPath>
		<clipPath id="SVGID_8_" clip-path="url(#SVGID_7_)">
			<use xlink:href="#SVGID_6_"  overflow="visible"/>
		</clipPath>
		<rect x="15.6" y="596.8" clip-path="url(#SVGID_8_)" fill="#33A6FF" width="958.5" height="456.2"/>
	</g>
</g>
</svg>
